<svg width="35" height="39" viewBox="0 0 35 39" fill="none" xmlns="http://www.w3.org/2000/svg">
<path d="M33.5417 0H7.29167C5.3578 0 3.50313 0.76091 2.13568 2.11534C0.768227 3.46977 0 5.30677 0 7.22222V20.2222C0 21.3715 0.460936 22.4737 1.28141 23.2864C2.10188 24.099 3.21468 24.5556 4.375 24.5556H13.125L11.6867 32.9821C11.6736 33.0615 11.6669 33.1418 11.6667 33.2222C11.6667 34.7546 12.2812 36.2242 13.3752 37.3077C14.4692 38.3913 15.9529 39 17.5 39C19.0471 39 20.5308 38.3913 21.6248 37.3077C22.7188 36.2242 23.3333 34.7546 23.3333 33.2222C23.3331 33.1418 23.3264 33.0615 23.3133 32.9821L21.875 24.5556H30.625C31.7853 24.5556 32.8981 24.099 33.7186 23.2864C34.5391 22.4737 35 21.3715 35 20.2222V1.44444C35 1.06135 34.8464 0.693954 34.5729 0.423068C34.2994 0.152182 33.9284 0 33.5417 0ZM7.29167 2.88889H26.25V10.1111C26.25 10.4942 26.4036 10.8616 26.6771 11.1325C26.9506 11.4034 27.3216 11.5556 27.7083 11.5556C28.0951 11.5556 28.466 11.4034 28.7395 11.1325C29.013 10.8616 29.1667 10.4942 29.1667 10.1111V2.88889H32.0833V14.4444H2.91667V7.22222C2.91667 6.07295 3.3776 4.97075 4.19807 4.15809C5.01855 3.34544 6.13134 2.88889 7.29167 2.88889ZM30.625 21.6667H21.875C21.4572 21.6667 21.0442 21.7556 20.6641 21.9274C20.2839 22.0992 19.9455 22.3499 19.6717 22.6625C19.3979 22.9752 19.1951 23.3424 19.0771 23.7394C18.959 24.1364 18.9285 24.5539 18.9875 24.9636V24.9997L20.4167 33.3306C20.4167 34.0967 20.1094 34.8315 19.5624 35.3733C19.0154 35.9151 18.2735 36.2194 17.5 36.2194C16.7265 36.2194 15.9846 35.9151 15.4376 35.3733C14.8906 34.8315 14.5833 34.0967 14.5833 33.3306L16.0052 24.9997V24.9636C16.0641 24.5545 16.0338 24.1376 15.9162 23.7411C15.7985 23.3446 15.5964 22.9778 15.3234 22.6653C15.0504 22.3528 14.7129 22.1019 14.3336 21.9296C13.9544 21.7574 13.5422 21.6677 13.125 21.6667H4.375C3.98823 21.6667 3.61729 21.5145 3.3438 21.2436C3.07031 20.9727 2.91667 20.6053 2.91667 20.2222V17.3333H32.0833V20.2222C32.0833 20.6053 31.9297 20.9727 31.6562 21.2436C31.3827 21.5145 31.0118 21.6667 30.625 21.6667Z" fill="#0B0047"/>
</svg>
