<svg width="17" height="18" viewBox="0 0 17 18" fill="none" xmlns="http://www.w3.org/2000/svg">
<path fill-rule="evenodd" clip-rule="evenodd" d="M7.56695 1.128C6.29511 2.30397 5.43931 3.86098 5.12818 5.565C4.81705 7.26902 5.06741 9.02799 5.84162 10.5775C6.61583 12.1271 7.87206 13.3835 9.4215 14.1579C10.9709 14.9323 12.7299 15.1829 14.4339 14.872C13.5225 15.7147 12.4274 16.3338 11.2354 16.6802C10.0434 17.0267 8.78707 17.091 7.56591 16.868C6.34474 16.645 5.19222 16.1409 4.19952 15.3956C3.20682 14.6503 2.40119 13.6842 1.84636 12.5737C1.29154 11.4633 1.00274 10.2389 1.00282 8.99756C1.0029 7.7562 1.29186 6.5319 1.84684 5.42151C2.40181 4.31113 3.20757 3.34512 4.20037 2.59993C5.19316 1.85474 6.34576 1.3508 7.56695 1.128ZM9.17795 1.134C9.65995 0.82 9.57495 0 8.99995 0C7.45634 0.00017635 5.93871 0.397368 4.59292 1.1534C3.24714 1.90944 2.11842 2.99891 1.31524 4.31711C0.512069 5.63531 0.0614349 7.13793 0.00664807 8.68057C-0.0481387 10.2232 0.294763 11.754 1.0024 13.1259C1.71004 14.4977 2.75862 15.6645 4.04739 16.5141C5.33615 17.3637 6.82178 17.8676 8.36149 17.9773C9.9012 18.0869 11.4432 17.7988 12.8394 17.1404C14.2356 16.4821 15.439 15.4757 16.3339 14.218C16.6339 13.798 16.0889 13.305 15.61 13.498C13.996 14.1504 12.1968 14.178 10.5636 13.5754C8.93036 12.9728 7.58028 11.7832 6.77681 10.2389C5.97335 8.69454 5.77416 6.90622 6.21813 5.22294C6.66209 3.53966 7.71735 2.0822 9.17795 1.135" fill="white"/>
</svg>
