<svg width="24" height="24" viewBox="0 0 24 24" fill="none" xmlns="http://www.w3.org/2000/svg">
<path d="M11.542 2.3999C11.733 2.3999 11.9161 2.47576 12.0511 2.61079C12.1862 2.74581 12.262 2.92895 12.262 3.1199V4.5599C12.262 4.75086 12.1862 4.93399 12.0511 5.06902C11.9161 5.20405 11.733 5.2799 11.542 5.2799C11.3511 5.2799 11.1679 5.20405 11.0329 5.06902C10.8979 4.93399 10.822 4.75086 10.822 4.5599V3.1199C10.822 2.92895 10.8979 2.74581 11.0329 2.61079C11.1679 2.47576 11.3511 2.3999 11.542 2.3999Z" fill="#0B0047"/>
<path fill-rule="evenodd" clip-rule="evenodd" d="M6.26208 12C6.26208 10.5996 6.81837 9.25664 7.80856 8.26645C8.79875 7.27625 10.1417 6.71997 11.5421 6.71997C12.9424 6.71997 14.2854 7.27625 15.2756 8.26645C16.2658 9.25664 16.8221 10.5996 16.8221 12C16.8221 13.4003 16.2658 14.7433 15.2756 15.7335C14.2854 16.7237 12.9424 17.28 11.5421 17.28C10.1417 17.28 8.79875 16.7237 7.80856 15.7335C6.81837 14.7433 6.26208 13.4003 6.26208 12ZM11.5421 8.15997C10.5237 8.15997 9.54693 8.56454 8.82679 9.28468C8.10666 10.0048 7.70209 10.9815 7.70209 12C7.70209 13.0184 8.10666 13.9951 8.82679 14.7153C9.54693 15.4354 10.5237 15.84 11.5421 15.84C12.5605 15.84 13.5372 15.4354 14.2574 14.7153C14.9775 13.9951 15.3821 13.0184 15.3821 12C15.3821 10.9815 14.9775 10.0048 14.2574 9.28468C13.5372 8.56454 12.5605 8.15997 11.5421 8.15997Z" fill="#0B0047"/>
<path d="M18.3313 6.23138C18.402 6.16546 18.4587 6.08597 18.4981 5.99766C18.5374 5.90934 18.5586 5.814 18.5603 5.71732C18.562 5.62065 18.5442 5.52462 18.508 5.43497C18.4718 5.34531 18.4179 5.26387 18.3495 5.1955C18.2812 5.12713 18.1997 5.07323 18.1101 5.03702C18.0204 5.00081 17.9244 4.98303 17.8277 4.98473C17.731 4.98644 17.6357 5.0076 17.5474 5.04695C17.4591 5.0863 17.3796 5.14304 17.3137 5.21378L16.2951 6.23138C16.1679 6.36787 16.0987 6.54839 16.102 6.73492C16.1053 6.92145 16.1808 7.09942 16.3127 7.23134C16.4447 7.36325 16.6226 7.43882 16.8092 7.44211C16.9957 7.4454 17.1762 7.37616 17.3127 7.24898L18.3313 6.23138ZM21.1421 12C21.1421 12.191 21.0663 12.3741 20.9313 12.5091C20.7962 12.6442 20.6131 12.72 20.4221 12.72H18.9821C18.7912 12.72 18.608 12.6442 18.473 12.5091C18.338 12.3741 18.2621 12.191 18.2621 12C18.2621 11.8091 18.338 11.6259 18.473 11.4909C18.608 11.3559 18.7912 11.28 18.9821 11.28H20.4221C20.6131 11.28 20.7962 11.3559 20.9313 11.4909C21.0663 11.6259 21.1421 11.8091 21.1421 12ZM17.3127 18.7872C17.4486 18.9183 17.6305 18.9908 17.8192 18.9891C18.008 18.9873 18.1886 18.9115 18.322 18.778C18.4554 18.6444 18.5311 18.4638 18.5326 18.275C18.5342 18.0862 18.4615 17.9044 18.3303 17.7687L17.3127 16.7511C17.2468 16.6803 17.1673 16.6236 17.079 16.5842C16.9907 16.5449 16.8953 16.5237 16.7986 16.522C16.702 16.5203 16.6059 16.5381 16.5163 16.5743C16.4266 16.6105 16.3452 16.6644 16.2768 16.7328C16.2085 16.8012 16.1546 16.8826 16.1183 16.9722C16.0821 17.0619 16.0643 17.1579 16.0661 17.2546C16.0678 17.3513 16.0889 17.4466 16.1283 17.5349C16.1676 17.6233 16.2244 17.7027 16.2951 17.7687L17.3127 18.7872ZM11.5421 18.72C11.7331 18.72 11.9162 18.7959 12.0513 18.9309C12.1863 19.0659 12.2621 19.2491 12.2621 19.44V20.88C12.2621 21.071 12.1863 21.2541 12.0513 21.3891C11.9162 21.5242 11.7331 21.6 11.5421 21.6C11.3512 21.6 11.168 21.5242 11.033 21.3891C10.898 21.2541 10.8221 21.071 10.8221 20.88V19.44C10.8221 19.2491 10.898 19.0659 11.033 18.9309C11.168 18.7959 11.3512 18.72 11.5421 18.72ZM6.79014 17.7744C6.92136 17.6387 6.99402 17.4568 6.99247 17.2681C6.99092 17.0793 6.91528 16.8987 6.78185 16.7651C6.64842 16.6315 6.46787 16.5557 6.27908 16.554C6.0903 16.5523 5.90839 16.6248 5.77254 16.7559L4.75398 17.7735C4.62276 17.9092 4.5501 18.091 4.55165 18.2798C4.5532 18.4686 4.62884 18.6492 4.76227 18.7828C4.8957 18.9163 5.07625 18.9921 5.26503 18.9939C5.45382 18.9956 5.63572 18.9231 5.77158 18.792L6.79014 17.7744ZM4.82214 12C4.82214 12.191 4.74628 12.3741 4.61126 12.5091C4.47623 12.6442 4.29309 12.72 4.10214 12.72H2.66214C2.47118 12.72 2.28805 12.6442 2.15302 12.5091C2.018 12.3741 1.94214 12.191 1.94214 12C1.94214 11.8091 2.018 11.6259 2.15302 11.4909C2.28805 11.3559 2.47118 11.28 2.66214 11.28H4.10214C4.29309 11.28 4.47623 11.3559 4.61126 11.4909C4.74628 11.6259 4.82214 11.8091 4.82214 12ZM5.77254 7.24418C5.90903 7.37136 6.08955 7.4406 6.27608 7.43731C6.46261 7.43402 6.64058 7.35845 6.7725 7.22654C6.90441 7.09462 6.97998 6.91665 6.98327 6.73012C6.98656 6.54359 6.91732 6.36307 6.79014 6.22658L5.77254 5.20802C5.63681 5.0768 5.45497 5.00414 5.26618 5.00569C5.0774 5.00724 4.89678 5.08288 4.76322 5.21631C4.62966 5.34974 4.55386 5.53029 4.55213 5.71907C4.5504 5.90786 4.62289 6.08976 4.75398 6.22562L5.77254 7.24418Z" fill="#0B0047"/>
</svg>
